<mxfile host="app.diagrams.net" agent="Mozilla/5.0 (Windows NT 10.0; Win64; x64) AppleWebKit/537.36 (KHTML, like Gecko) Chrome/140.0.0.0 Safari/537.36" version="28.2.3">
  <diagram name="Page-1" id="XTZ8Ta7Do7vM6Z-Pa5YX">
    <mxGraphModel dx="3026" dy="3289" grid="1" gridSize="10" guides="1" tooltips="1" connect="1" arrows="1" fold="1" page="1" pageScale="1" pageWidth="850" pageHeight="1100" math="0" shadow="0">
      <root>
        <mxCell id="0" />
        <mxCell id="1" parent="0" />
        <mxCell id="ughAx5fFNqMvIWqFPoGj-1" value="" style="swimlane;startSize=0;" vertex="1" parent="1">
          <mxGeometry x="-1000" y="-390" width="1920" height="1080" as="geometry" />
        </mxCell>
      </root>
    </mxGraphModel>
  </diagram>
</mxfile>
